<svg xmlns="http://www.w3.org/2000/svg" viewBox="0 0 48 48"><defs><style>.cls-1{fill:#65b1fc;}.cls-2{fill:#fff;}.cls-3{fill:#256494;}</style></defs><title>7-Space Game</title><g id="_7-Space_Game" data-name="7-Space Game"><rect class="cls-1" x="1" y="1" width="46" height="46" rx="4" ry="4"/><path class="cls-2" d="M34,42v1H14V42a2.938,2.938,0,0,1,3-3h2a2.938,2.938,0,0,0,3-3V34h4v2a2.938,2.938,0,0,0,3,3h2A2.938,2.938,0,0,1,34,42Z"/><rect class="cls-2" x="22" y="28" width="4" height="3"/><polygon class="cls-2" points="28 11 28 12 20 12 20 11 20 10 24 6 28 10 28 11"/><polygon class="cls-2" points="35 22 35 25 28 25 28 13.94 35 22"/><polygon class="cls-2" points="20 13.94 20 25 13 25 13 22 20 13.94"/><path class="cls-1" d="M28,25v2a1,1,0,0,1-1,1H21a1,1,0,0,1-1-1V12h8V25Z"/><path class="cls-3" d="M43,0H5A5.006,5.006,0,0,0,0,5V43a5.006,5.006,0,0,0,5,5H43a5.006,5.006,0,0,0,5-5V5A5.006,5.006,0,0,0,43,0Zm3,43a3,3,0,0,1-3,3H5a3,3,0,0,1-3-3V5A3,3,0,0,1,5,2H43a3,3,0,0,1,3,3Z"/><path class="cls-3" d="M29,13.564V10a1,1,0,0,0-.293-.707l-4-4a1,1,0,0,0-1.414,0l-4,4A1,1,0,0,0,19,10v3.564l-6.755,7.78A1,1,0,0,0,12,22v3a1,1,0,0,0,1,1h6v1a2,2,0,0,0,2,2v2a1,1,0,0,0,1,1h4a1,1,0,0,0,1-1V29a2,2,0,0,0,2-2V26h6a1,1,0,0,0,1-1V22a1,1,0,0,0-.245-.656Zm-5-6.15,3,3V11H21v-.586ZM14,24V22.374l5-5.759V24Zm11,6H23V29h2Zm1-3H21V13h6V27Zm8-3H29V16.615l5,5.759Z"/><path class="cls-3" d="M21,36a1.883,1.883,0,0,1-2,2H17a3.888,3.888,0,0,0-4,4v1h2V42a1.882,1.882,0,0,1,2-2h2a3.887,3.887,0,0,0,4-4V34H21Z"/><path class="cls-3" d="M31,38H29a1.884,1.884,0,0,1-2-2V34H25v2a3.887,3.887,0,0,0,4,4h2a1.882,1.882,0,0,1,2,2v1h2V42A3.888,3.888,0,0,0,31,38Z"/><rect class="cls-3" x="23" y="15" width="2" height="10"/><rect class="cls-3" x="17" y="33" width="2" height="2"/><rect class="cls-3" x="13" y="33" width="2" height="2"/><rect class="cls-3" x="29" y="33" width="2" height="2"/><rect class="cls-3" x="33" y="33" width="2" height="2"/><path class="cls-3" d="M4,7V9H6V7A.915.915,0,0,1,7,6h3V4H7A2.916,2.916,0,0,0,4,7Z"/></g></svg>