<?xml version="1.0" encoding="iso-8859-1"?>
<!-- Generator: Adobe Illustrator 22.0.1, SVG Export Plug-In . SVG Version: 6.00 Build 0)  -->
<svg version="1.1" xmlns="http://www.w3.org/2000/svg" xmlns:xlink="http://www.w3.org/1999/xlink" x="0px" y="0px"
	 viewBox="0 0 512 512" style="enable-background:new 0 0 512 512;" xml:space="preserve">
<g id="BULINE">
	<circle id="XMLID_10_" style="fill:#F9BD38;" cx="256" cy="256" r="256"/>
</g>
<g id="Icons">
	<g id="XMLID_33_">
		<rect id="XMLID_34_" x="182.808" y="396.711" style="fill:#32314B;" width="142.038" height="59.849"/>
		<rect id="XMLID_38_" x="182.808" y="395.704" style="fill:#27273D;" width="142.038" height="29.925"/>
		<path id="XMLID_116_" style="fill:#32314B;" d="M492.23,77.89V354.8c-6.16,14.72-13.65,28.74-22.33,41.91H42.1
			c-8.43-12.8-15.74-26.39-21.8-40.65V77.89c0-7.86,6.37-14.23,14.22-14.23H478C485.86,63.66,492.23,70.03,492.23,77.89z"/>
		<path id="XMLID_102_" style="fill:#3E436D;" d="M492.23,77.89V354.8c-6.16,14.72-13.65,28.74-22.33,41.91H170.17
			c-7.85,0-14.23-6.37-14.23-14.23V77.89c0-7.86,6.38-14.23,14.23-14.23H478C485.86,63.66,492.23,70.03,492.23,77.89z"/>
		<path id="XMLID_36_" style="fill:#AFAFEF;" d="M465.118,377.395H47.407c-4.83,0-8.745-3.915-8.745-8.745V91.726
			c0-4.83,3.915-8.745,8.745-8.745h417.711c4.83,0,8.745,3.915,8.745,8.745v276.924C473.863,373.48,469.948,377.395,465.118,377.395
			z"/>
		<path id="XMLID_45_" style="fill:#9C9CD3;" d="M473.865,293.559v75.091c0,4.828-3.914,8.742-8.742,8.742H47.402
			c-4.828,0-8.742-3.914-8.742-8.742V91.724c0-4.828,3.914-8.742,8.742-8.742h109.009v0c0,116.298,94.278,210.576,210.576,210.576
			H473.865z"/>
		<path id="XMLID_39_" style="fill:#FC3268;" d="M181.02,177.85c-0.14-0.19-1.72-2.19-4.74-6c-0.22-0.27-0.43-0.54-0.62-0.8
			c-1.23-1.67-1.88-3.12-1.94-4.34c-0.01-0.07-0.01-0.14-0.01-0.21c0-1.62,0.77-2.88,2.32-3.78c1.28-0.79,2.78-1.18,4.49-1.18
			c0.24,0,0.59,0.04,1.04,0.11s0.77,0.1,0.96,0.1c0.43,0,0.65-0.2,0.65-0.6c0-0.1-0.04-0.22-0.11-0.36
			c-2.26-4.54-3.7-7.68-4.32-9.42c-0.21-0.57-0.5-0.86-0.86-0.86c-0.14,0-0.34,0.01-0.6,0.04c-3.32,0.49-6.27,1.39-8.86,2.69
			c-1.15,0.56-2.23,1.22-3.24,1.95c-4.02,2.88-6.03,6.49-6.03,10.85c0,2.99,0.82,5.73,2.46,8.21c0.24,0.35,1.76,2.15,4.57,5.38
			c1.62,1.91,2.42,3.63,2.42,5.18c0,2.43-1.23,4.26-3.71,5.5c-1.12,0.54-3.4,1.21-6.85,1.99c-0.36,0.07-0.53,0.24-0.53,0.5
			c0,0.74,0.93,2.78,2.81,6.12c1.88,3.35,3.1,5.02,3.64,5.02c0.12,0,0.28-0.01,0.47-0.04c5.11-0.83,9.46-2.77,13.03-5.81
			c3.84-3.27,5.88-7.15,6.08-11.65c0.01-0.26,0.02-0.51,0.02-0.77C183.56,183.07,182.71,180.47,181.02,177.85z"/>
		<path id="XMLID_41_" style="fill:#FC3268;" d="M224.01,160.34c-0.15-1.15-0.23-2.02-0.23-2.62c0-0.52,0.02-1.41,0.07-2.68
			c0.05-1.14,0.07-2.03,0.07-2.67c-0.02-0.41-0.07-0.64-0.14-0.7c-0.07-0.06-0.35-0.09-0.82-0.09c-0.03,0-1.59,0.12-4.68,0.36
			c-5.76,0.45-9.71,0.68-11.85,0.68c-7.54,0-13.24-0.25-17.09-0.75c-0.29-0.02-0.45-0.04-0.5-0.04c-0.41,0-0.69,0.9-0.86,2.68
			c-0.09,1.12-0.18,2.24-0.25,3.35c-0.05,0.36-0.26,1.37-0.64,3.04c-0.33,1.52-0.5,2.44-0.5,2.75c0,0.23,0.19,0.35,0.57,0.35
			c2.83,0,6.63-0.23,11.39-0.71c0.19,6.42,0.28,10.56,0.28,12.42c0,2.81-0.12,7.02-0.35,12.63c-0.24,5.62-0.36,9.83-0.36,12.64
			c0,0.61,0.33,0.98,1,1.1c1.23,0.19,3.39,0.29,6.46,0.29c2.76,0,4.85-0.1,6.28-0.29c0.59-0.07,0.93-0.13,1-0.18
			c0.21-0.12,0.32-0.4,0.32-0.85c0-2.81-0.11-7.03-0.34-12.67c-0.23-5.64-0.34-9.86-0.34-12.67c0-2.38,0.07-6.58,0.21-12.6
			c6.26,0.36,9.84,0.54,10.75,0.54c0.52,0,0.78-0.24,0.78-0.72C224.24,162.36,224.16,161.5,224.01,160.34z"/>
		<path id="XMLID_35_" style="fill:#FC3268;" d="M271.93,192.04c-0.96-2.55-2.12-5.63-3.5-9.24c-0.56-1.47-1.16-3.02-1.79-4.66
			c-5.64-14.64-9.04-23.2-10.21-25.7c-0.38-0.79-0.79-1.18-1.25-1.18c-0.62,0-1.55,0.04-2.8,0.13c-1.25,0.08-2.19,0.12-2.84,0.12
			c-0.66,0-1.67-0.06-3.01-0.18c-1.34-0.12-2.34-0.18-2.98-0.18c-0.38,0-0.71,0.46-1,1.36c-0.5,1.57-3.66,10.24-9.49,26.02
			c-5.38,14.58-8.07,22.18-8.07,22.8c0,0.69,1.82,1.04,5.46,1.04c4.62,0,7.33-0.1,8.14-0.29c0.64-0.16,1.19-1.23,1.64-3.21
			c0.5-2.16,0.95-3.44,1.36-3.82c0.26-0.21,2.41-0.32,6.46-0.32c5.99,0,9.18,0.08,9.56,0.25c0.45,0.24,1.08,2.07,1.89,5.5
			c0.22,0.9,0.73,1.44,1.54,1.6c0.97,0.19,3.16,0.29,6.56,0.29c3.72,0,5.93-0.1,6.64-0.29c0.6-0.16,0.89-0.46,0.89-0.89
			C275.13,200.8,274.06,197.75,271.93,192.04z M253.76,182.24c-0.17,0.38-1.04,0.57-2.61,0.57c-1.69,0-2.9-0.02-3.64-0.07
			c-1.43-0.05-2.14-0.29-2.14-0.71c0-0.65,0.64-2.82,1.93-6.54c1.19-3.49,2.03-5.77,2.53-6.81c0.5,0.95,1.29,3.14,2.36,6.56
			c1.09,3.55,1.64,5.71,1.64,6.5C253.83,181.95,253.8,182.12,253.76,182.24z"/>
		<path id="XMLID_49_" style="fill:#FC3268;" d="M316.96,191.8c-2.89-5.96-4.34-8.95-4.35-8.95c0-0.34,0.27-0.69,0.82-1.07
			c2.69-1.95,4.53-3.97,5.53-6.04s1.5-4.84,1.5-8.31c0-5.21-1.94-9.2-5.82-11.96c-3.42-2.45-7.85-3.67-13.28-3.67
			c-2.61,0-6.12,0.05-10.52,0.14c-6.5,0.14-10.13,0.29-10.91,0.43c-0.77,0.14-1.14,0.41-1.12,0.82l0.04,0.5
			c0.14,1.72,0.25,3.64,0.34,5.76c0.22,4.86,0.33,10.79,0.33,17.79c0,2.64-0.12,6.61-0.37,11.89c-0.05,1.02-0.09,1.99-0.13,2.91
			c-0.17,3.85-0.25,6.83-0.25,8.94c0,0.59,0.35,0.96,1.04,1.1c0.69,0.15,2.74,0.22,6.14,0.22c2.97,0,5.16-0.05,6.56-0.15
			c0.34-0.02,0.67-0.04,1-0.07c0.22-0.07,0.33-0.31,0.33-0.71c0-1.62-0.15-4.03-0.45-7.25c-0.07-0.74-0.13-1.43-0.19-2.08
			c-0.17-2.19-0.26-3.91-0.26-5.16c0-1.21,0.18-1.82,0.54-1.82c2.58,0,3.87-0.01,3.87-0.05c1.44,0.12,2.36,0.62,2.77,1.51
			c0.31,0.74,0.62,1.46,0.9,2.14c1.52,3.6,2.67,6.39,3.45,8.39c0.69,1.83,1.21,3.21,1.57,4.14c0.19,0.4,0.36,0.64,0.5,0.71
			c0.07,0.05,0.37,0.11,0.89,0.18c1.12,0.15,3.24,0.22,6.35,0.22c3.64,0,5.92-0.07,6.82-0.22c0.48-0.07,0.72-0.19,0.72-0.35
			C321.32,201.11,319.86,197.8,316.96,191.8z M301.02,175.72c-0.75,0.14-1.59,0.2-2.51,0.2c-1.59,0-3.12-0.1-4.57-0.32
			c-0.76-0.12-1.14-0.24-1.14-0.36c0-0.52-0.01-1.32-0.04-2.39c-0.02-1.07-0.03-1.88-0.03-2.42c0-3.86,0.07-6.19,0.21-7
			c0.15-0.69,1.35-1.03,3.61-1.03c1.75,0,3.24,0.13,4.47,0.4c0.98,0.21,1.8,0.5,2.45,0.88c1.9,1.12,2.86,3.13,2.86,6.03
			C306.33,173.12,304.56,175.13,301.02,175.72z"/>
		<path id="XMLID_52_" style="fill:#FC3268;" d="M359.87,160.34c-0.15-1.15-0.23-2.02-0.23-2.62c0-0.52,0.03-1.41,0.07-2.68
			c0.05-1.14,0.08-2.03,0.08-2.67c-0.03-0.41-0.08-0.64-0.15-0.7s-0.34-0.09-0.82-0.09c-0.02,0-1.58,0.12-4.67,0.36
			c-5.76,0.45-9.71,0.68-11.85,0.68c-7.54,0-13.24-0.25-17.1-0.75c-0.28-0.02-0.45-0.04-0.49-0.04c-0.41,0-0.69,0.9-0.86,2.68
			c-0.1,1.12-0.18,2.24-0.25,3.35c-0.05,0.36-0.26,1.37-0.64,3.04c-0.34,1.52-0.5,2.44-0.5,2.75c0,0.23,0.19,0.35,0.57,0.35
			c2.83,0,6.62-0.23,11.38-0.71c0.19,6.42,0.29,10.56,0.29,12.42c0,2.81-0.12,7.02-0.36,12.63c-0.24,5.62-0.36,9.83-0.36,12.64
			c0,0.61,0.34,0.98,1,1.1c1.24,0.19,3.39,0.29,6.46,0.29c2.76,0,4.86-0.1,6.28-0.29c0.6-0.07,0.93-0.13,1-0.18
			c0.22-0.12,0.32-0.4,0.32-0.85c0-2.81-0.11-7.03-0.34-12.67c-0.22-5.64-0.33-9.86-0.33-12.67c0-2.38,0.07-6.58,0.21-12.6
			c6.26,0.36,9.84,0.54,10.74,0.54c0.53,0,0.79-0.24,0.79-0.72C360.11,162.36,360.03,161.5,359.87,160.34z"/>
		<path id="XMLID_54_" style="fill:#32314B;" d="M206.15,263.36c-0.45-6.11-0.68-10.7-0.68-13.77c0-1.15,0.07-2.87,0.2-5.18
			s0.19-4.03,0.19-5.17c0-0.79-0.29-1.18-0.89-1.18c-0.76,0-1.9,0.05-3.43,0.16c-1.52,0.11-2.66,0.16-3.42,0.16
			c-0.72,0-1.77-0.06-3.16-0.2c-1.39-0.13-2.43-0.19-3.12-0.19c-0.27,0-0.46,0.02-0.57,0.07c-0.31,0.09-0.47,0.37-0.47,0.82
			c0,1.52,0.16,3.52,0.47,6c0.35,3.21,0.57,5.21,0.64,5.99c-3,1.22-5.71,1.82-8.14,1.82c-3.83,0-6.79-1.16-8.88-3.5
			c-2.03-2.26-3.04-5.33-3.04-9.2c0-3.67,0.98-6.72,2.93-9.18c2.09-2.66,4.92-3.99,8.49-3.99c2.19,0,4.19,0.49,6,1.46
			c1.21,0.64,2.4,1.55,3.57,2.71c0.95,0.98,1.5,1.47,1.64,1.47c0.62,0,1.99-1.33,4.12-3.98c2.13-2.66,3.19-4.36,3.19-5.12
			c0-0.24-0.2-0.65-0.6-1.22c-1.98-2.76-4.69-4.9-8.14-6.42c-3.19-1.38-6.59-2.07-10.21-2.07c-7.44,0-13.5,2.57-18.16,7.71
			c-4.52,4.97-6.78,11.23-6.78,18.77c0,7.38,2.33,13.48,6.99,18.31c4.71,4.9,10.74,7.35,18.1,7.35c4.56,0,9.33-0.98,14.31-2.93
			c0.5,0.19,1.82,0.55,3.98,1.07c2.15,0.53,3.45,0.79,3.9,0.79c0.72,0,1.05-0.32,1-0.96L206.15,263.36z"/>
		<path id="XMLID_44_" style="fill:#32314B;" d="M258.05,263.22c-0.73-2.36-3.49-9.78-8.29-22.27c-5.64-14.63-9.04-23.2-10.21-25.7
			c-0.38-0.78-0.8-1.17-1.25-1.17c-0.62,0-1.55,0.04-2.8,0.12c-1.25,0.09-2.19,0.13-2.84,0.13c-0.66,0-1.67-0.06-3.01-0.18
			c-1.35-0.12-2.34-0.18-2.98-0.18c-0.38,0-0.72,0.45-1,1.36c-0.4,1.27-2.54,7.17-6.42,17.7c-0.92,2.51-1.95,5.28-3.07,8.31
			c-5.38,14.59-8.07,22.19-8.07,22.81c0,0.69,1.82,1.03,5.46,1.03c4.62,0,7.33-0.09,8.14-0.28c0.64-0.17,1.19-1.24,1.64-3.21
			c0.5-2.17,0.95-3.44,1.36-3.82c0.26-0.22,2.41-0.32,6.46-0.32c5.99,0,9.18,0.08,9.56,0.25c0.45,0.23,1.08,2.06,1.89,5.49
			c0.22,0.91,0.73,1.44,1.54,1.61c0.97,0.19,3.16,0.28,6.56,0.28c3.71,0,5.93-0.09,6.64-0.28c0.6-0.17,0.89-0.47,0.89-0.9
			C258.25,263.9,258.18,263.64,258.05,263.22z M230.63,245.55c-1.43-0.04-2.14-0.28-2.14-0.71c0-0.37,0.22-1.26,0.65-2.67
			c0.31-1.02,0.74-2.31,1.28-3.86c1.19-3.5,2.03-5.77,2.53-6.82c0.5,0.95,1.28,3.14,2.36,6.57c1.09,3.54,1.64,5.71,1.64,6.49
			c0,0.22-0.03,0.39-0.07,0.5c-0.17,0.39-1.04,0.58-2.61,0.58c-0.37,0-0.72,0-1.04-0.01C232.07,245.62,231.21,245.59,230.63,245.55z
			"/>
		<path id="XMLID_58_" style="fill:#32314B;" d="M314.78,252.16c-0.21-5.19-0.32-9.08-0.32-11.67c0-2.81,0.1-7,0.31-12.58
			c0.2-5.58,0.3-9.78,0.3-12.58c0-0.58-0.36-0.86-1.07-0.86c-0.6,0-1.51,0.06-2.73,0.18c-1.23,0.12-2.14,0.18-2.73,0.18
			c-0.72,0-1.77-0.04-3.16-0.11s-2.43-0.11-3.12-0.11c-0.48,0-0.92,0.47-1.32,1.39c-4.71,10.07-8.27,17.6-10.67,22.6
			c-0.86,1.78-1.42,2.67-1.68,2.67c-0.5,0-1.12-0.77-1.86-2.32l-10.42-22.88c-0.47-0.99-0.84-1.49-1.1-1.49
			c-1.31,0-3.28,0.04-5.89,0.12c-2.62,0.08-4.58,0.13-5.89,0.13c-1.03,0-1.52,0.23-1.5,0.71l0.04,0.61c0.19,3.9,0.29,6.84,0.32,8.81
			c0.23,7.59,0.35,12.77,0.35,15.53c0,2.59-0.12,6.49-0.37,11.68c-0.25,5.2-0.38,9.1-0.38,11.69c0,0.38,0.06,0.65,0.16,0.81
			c0.11,0.15,0.4,0.23,0.88,0.23h11.92c0.66,0,1-0.42,1-1.25c0-2.33-0.06-5.83-0.18-10.49c-0.12-4.67-0.18-8.16-0.18-10.5
			c0-0.47,0.08-0.82,0.25-1.03c0.17,0.14,0.27,0.27,0.32,0.39c1.12,2.36,2.8,6.17,5.03,11.46c2.1,4.99,3.79,8.8,5.07,11.42
			c0.24,0.47,0.98,0.71,2.21,0.71c0.84,0,1.31-0.01,1.43-0.04c0.36-0.09,0.66-0.41,0.89-0.96c1.72-4.21,3.43-8.43,5.14-12.67
			c2.93-7.21,4.52-10.88,4.79-11.03c0.21,0.05,0.32,0.42,0.32,1.11c0,2.4-0.09,6.01-0.27,10.81c-0.18,4.81-0.27,8.42-0.27,10.82
			c0,0.83,0.35,1.25,1.04,1.25h12.63c0.69,0,1.03-0.37,1.03-1.11C315.1,261.22,315,257.34,314.78,252.16z"/>
		<path id="XMLID_60_" style="fill:#32314B;" d="M356.139,233.775c0.002,0.027,0.011,0.046,0.011,0.075
			C356.15,233.786,356.146,233.763,356.139,233.775z M357.5,252.51c-1.24,0-3.1,0.12-5.58,0.34c-2.49,0.23-4.36,0.34-5.62,0.34
			c-3.48,0-5.21,0-5.21,0c-2.64-0.16-4.17-0.7-4.57-1.61c-0.24-0.52-0.36-1.68-0.36-3.49c0-1.36,0.01-2.1,0.04-2.22
			c0.16-0.47,0.73-0.71,1.71-0.71h3.78c4.83,0,7.93,0.07,9.28,0.22l3.21,0.35c0.69,0,1.04-0.24,1.04-0.71c0-1.9,0.09-3.81,0.28-5.71
			c0.375-3.607,0.59-5.45,0.639-5.535c-0.028-0.494-0.308-0.745-0.849-0.745c-0.48,0-1.12,0.04-1.93,0.14
			c-1.04,0.1-1.7,0.15-1.96,0.18c-3.07,0.17-6.1,0.25-9.1,0.25c-0.45,0-1.02,0.02-1.71,0.05c-0.7,0.04-1.16,0.06-1.4,0.06
			c-1.14,0-1.91-0.23-2.32-0.68c-0.47-0.53-0.71-1.6-0.71-3.22c0-1.54,0.06-2.46,0.18-2.74c0.28-0.6,1.06-0.89,2.32-0.89
			c5.04,0,10.73,0.26,17.06,0.78c0.35,0.02,0.6,0.04,0.75,0.04c0.47,0,0.71-0.25,0.71-0.75c0-0.6-0.12-2.28-0.37-5.05
			c-0.25-2.77-0.44-4.43-0.56-4.98c-0.19-0.93-0.9-1.39-2.14-1.39c-1.73,0-4.35,0.04-7.85,0.14c-3.5,0.09-6.11,0.14-7.85,0.14
			c-1.76,0-4.41-0.05-7.94-0.14c-3.53-0.1-6.18-0.14-7.94-0.14c-0.64,0-0.94,0.27-0.89,0.82l0.03,0.5c0.19,3.78,0.32,6.62,0.39,8.53
			c0.29,7.4,0.43,12.45,0.43,15.16c0,2.67-0.15,6.67-0.44,12.01c-0.3,5.34-0.45,9.35-0.45,12.01c0,0.69,0.39,1.04,1.18,1.04
			c1.81,0,4.52,0.01,8.13,0.03c3.62,0.03,6.34,0.04,8.18,0.04c8.4,0,13.46,0.12,15.2,0.35c0.5,0.08,0.86,0.11,1.07,0.11
			c0.5,0,0.89-0.22,1.18-0.68c0.33-0.57,0.71-2.34,1.14-5.31c0.4-2.74,0.61-4.62,0.61-5.64
			C358.29,252.94,358.02,252.51,357.5,252.51z"/>
		<path id="XMLID_70_" style="fill:#38C689;" d="M381.077,306.945v19.866c0,2.459-2,4.447-4.458,4.447H135.906
			c-2.459,0-4.458-1.989-4.458-4.447v-19.866c0-2.459,2-4.458,4.458-4.458h240.714C379.078,302.487,381.077,304.486,381.077,306.945
			z"/>
		<path id="XMLID_68_" style="fill:#FFFFFF;" d="M381.077,306.945v19.866c0,2.459-2,4.447-4.458,4.447H297.19
			c-2.47,0-4.458-1.989-4.458-4.447v-19.866c0-2.459,1.989-4.458,4.458-4.458h79.429
			C379.078,302.487,381.077,304.486,381.077,306.945z"/>
		<path id="XMLID_63_" style="fill:#27273D;" d="M339.991,491.892H169.548c-4.553,0-8.244-3.691-8.244-8.244v-18.843
			c0-4.553,3.691-8.244,8.244-8.244h170.442c4.553,0,8.244,3.691,8.244,8.244v18.843
			C348.235,488.201,344.544,491.892,339.991,491.892z"/>
	</g>
</g>
</svg>
